<svg viewBox="0 0 540 167" version="1.1" xmlns="http://www.w3.org/2000/svg" xmlns:xlink="http://www.w3.org/1999/xlink" class="w-full h-auto" data-flip-id="auto-2" style=""><g class="js-l-letter" data-svg-origin="0 3" transform="matrix(1,0,0,1,0,0)" style="translate: none; rotate: none; scale: none; transform-origin: 0px 0px;"><path d="M117,46.2618767 C117,19.4285412 97.4093791,3 66.3907241,3 L0,3 L0,164 L20.1348621,164 L20.1348621,93.9047748 L62.0371811,93.9047748 C81.627931,93.9047748 93.6000774,98.8333281 93.6000774,122.92855 L93.6000774,164 L113.73494,164 L113.73494,120.190565 C113.73494,102.119117 106.116336,88.9762215 92.5115949,83.5 C105.027983,78.0237655 117,65.4285449 117,46.2618767 Z M63.1256636,75.2857813 L20.1348621,75.2857813 L20.1348621,20.5237609 L63.1256636,20.5237609 C84.3488792,20.5237609 96.3208966,29.8333225 96.3208966,47.3570964 C96.3208966,64.881 83.804638,75.2857813 63.1256636,75.2857813 Z" class="fill-current"></path></g> <g class="js-l-letter" data-svg-origin="124 0" transform="matrix(1,0,0,1,0,0)" style="translate: none; rotate: none; scale: none; transform-origin: 0px 0px;"><path d="M198.499613,0 C154.996679,0 124,34.928075 124,83.4998706 C124,132.071278 155.540788,167 198.499613,167 C241.459728,167 273,132.071278 273,83.4998706 C273,34.928075 241.459728,0 198.499613,0 Z M198.499613,148.990221 C166.416521,148.990221 144.663765,122.793874 144.663765,83.4998706 C144.663765,44.2057377 166.416521,18.0097785 198.499613,18.0097785 C230.583994,18.0097785 252.335461,44.2057377 252.335461,83.4998706 C252.335461,122.793874 230.583994,148.990221 198.499613,148.990221 Z" class="fill-current"></path></g> <g class="js-l-letter" data-svg-origin="279 0" transform="matrix(1,0,0,1,0,0)" style="translate: none; rotate: none; scale: none; transform-origin: 0px 0px;"><path d="M361.551325,75.6524907 L332.224982,68.5770111 C313.215784,64.2229889 304.526306,56.603321 304.526306,43.5409963 C304.526306,28.3016605 319.732892,17.9606642 341.456586,17.9606642 C363.181567,17.9606642 378.931567,30.4786716 380.017108,48.4393358 L380.017108,51.1606642 L400.111847,51.1606642 L400.111847,48.4393358 C398.482892,19.593487 374.586829,0 341.456586,0 C308.327631,0 283.888153,18.5048525 283.888153,44.6295019 C283.888153,66.4 299.094739,81.6393358 326.793414,88.1704981 L353.948675,94.1573432 C374.586829,99.0556827 383.818433,106.675351 383.818433,119.193487 C383.818433,137.15428 368.06972,148.583911 343.086829,148.583911 C317.560522,148.583911 300.181567,133.888118 299.094739,111.57369 L299.094739,108.852491 L279,108.852491 L279,111.57369 C280.086829,144.773174 305.06972,166 343.628955,166 C379.473694,166 405,146.4069 405,118.104852 C404.456586,96.8786716 389.25,81.6393358 361.551325,75.6524907 Z" class="fill-current"></path></g> <g class="js-l-letter" data-svg-origin="414 0" transform="matrix(1,0,0,1,0,0)" style="translate: none; rotate: none; scale: none; transform-origin: 0px 0px;"><path d="M496.009198,75.6524907 L466.681567,68.5770111 C447.672369,64.2229889 438.982892,56.603321 438.982892,43.5409963 C438.982892,28.3016605 454.189478,17.9606642 475.914459,17.9606642 C497.638153,17.9606642 513.388153,30.4786716 514.473694,48.4393358 L514.473694,51.1606642 L534.568433,51.1606642 L534.568433,48.4393358 C532.939478,19.593487 509.586829,0 476.456586,0 C443.327631,0 418.888153,18.5048525 418.888153,44.6295019 C418.888153,66.4 434.094739,81.6393358 461.793414,88.1704981 L488.948675,94.1573432 C509.586829,99.0556827 518.818433,106.675351 518.818433,119.193487 C518.818433,137.15428 503.068433,148.583911 478.086829,148.583911 C452.560522,148.583911 435.181567,133.888118 434.094739,111.57369 L434.094739,108.852491 L414,108.852491 L414,111.57369 C415.086829,144.773174 440.06972,166 478.628955,166 C514.473694,166 540,146.4069 540,118.104852 C538.913171,96.8786716 523.706586,81.6393358 496.009198,75.6524907 Z" class="fill-current"></path></g></svg>